# Blender 4.3.0 Alpha
# www.blender.org
mtllib reference.mtl
o Plane
v -2.500000 0.000000 2.500000
v 2.500000 0.000000 2.500000
v -2.500000 0.000000 -2.500000
v 2.500000 0.000000 -2.500000
vn -0.0000 1.0000 -0.0000
vt 1.000000 0.000000
vt 0.000000 1.000000
vt 0.000000 0.000000
vt 1.000000 1.000000
s 0
usemtl grid
f 2/1/1 3/2/1 1/3/1
f 2/1/1 4/4/1 3/2/1
o Plane.001
v 0.000000 2.535000 0.035000
v -0.000000 0.000000 0.035000
v 0.000000 2.535000 -0.035000
v -0.000000 0.000000 -0.035000
v 0.000000 2.535000 0.000000
v -0.000000 0.000000 0.000000
v 0.035471 2.535000 0.000000
v 0.035471 0.000000 0.000000
v -0.035199 2.535000 0.000000
v -0.035199 0.000000 0.000000
v -0.035000 0.000000 0.035000
v 0.035000 0.000000 0.035000
v -0.035000 0.000000 -0.035000
v 0.035000 0.000000 -0.035000
v -0.035000 2.535000 0.035000
v 0.035000 2.535000 0.035000
v -0.035000 2.535000 -0.035000
v 0.035000 2.535000 -0.035000
vn 1.0000 -0.0000 -0.0000
vn -0.0000 -0.0000 1.0000
vn -0.0000 1.0000 -0.0000
vt 1.000000 0.500000
vt 0.000000 1.000000
vt 0.000000 0.500000
vt 1.000000 0.000000
vt 0.000000 0.000000
vt 1.000000 1.000000
s 0
usemtl yaxis
f 10/5/2 7/6/2 9/7/2
f 6/8/2 9/7/2 5/9/2
f 10/5/3 11/7/3 9/7/3
f 9/7/3 14/5/3 10/5/3
f 16/8/4 17/6/4 15/9/4
f 20/8/4 21/6/4 19/9/4
f 10/5/2 8/10/2 7/6/2
f 6/8/2 10/5/2 9/7/2
f 10/5/3 12/5/3 11/7/3
f 9/7/3 13/7/3 14/5/3
f 16/8/4 18/10/4 17/6/4
f 20/8/4 22/10/4 21/6/4
o Plane.002
v 2.535000 -0.000000 -0.035000
v -0.000000 -0.000000 -0.035000
v 2.535000 -0.000000 0.035000
v 0.000000 -0.000000 0.035000
v 2.535000 -0.000000 -0.000000
v 0.000000 -0.000000 -0.000000
v 2.535000 0.035471 -0.000000
v 0.000000 0.035471 -0.000000
v 2.535000 -0.035199 -0.000000
v 0.000000 -0.035199 -0.000000
v -0.000000 -0.035000 -0.035000
v -0.000000 0.035000 -0.035000
v 0.000000 -0.035000 0.035000
v 0.000000 0.035000 0.035000
v 2.535000 -0.035000 -0.035000
v 2.535000 0.035000 -0.035000
v 2.535000 -0.035000 0.035000
v 2.535000 0.035000 0.035000
vn -0.0000 1.0000 -0.0000
vn -0.0000 -0.0000 -1.0000
vn 1.0000 -0.0000 -0.0000
vt 1.000000 0.500000
vt 0.000000 1.000000
vt 0.000000 0.500000
vt 1.000000 0.000000
vt 0.000000 0.000000
vt 1.000000 1.000000
s 0
usemtl xaxis
f 28/11/5 25/12/5 27/13/5
f 24/14/5 27/13/5 23/15/5
f 28/11/6 29/13/6 27/13/6
f 27/13/6 32/11/6 28/11/6
f 34/14/7 35/12/7 33/15/7
f 38/14/7 39/12/7 37/15/7
f 28/11/5 26/16/5 25/12/5
f 24/14/5 28/11/5 27/13/5
f 28/11/6 30/11/6 29/13/6
f 27/13/6 31/13/6 32/11/6
f 34/14/7 36/16/7 35/12/7
f 38/14/7 40/16/7 39/12/7
o Plane.003
v 0.035000 -0.000000 2.535000
v 0.035000 -0.000000 -0.000000
v -0.035000 -0.000000 2.535000
v -0.035000 -0.000000 0.000000
v 0.000000 -0.000000 2.535000
v 0.000000 -0.000000 0.000000
v 0.000000 0.035471 2.535000
v 0.000000 0.035471 0.000000
v 0.000000 -0.035199 2.535000
v 0.000000 -0.035199 0.000000
v 0.035000 -0.035000 -0.000000
v 0.035000 0.035000 -0.000000
v -0.035000 -0.035000 0.000000
v -0.035000 0.035000 0.000000
v 0.035000 -0.035000 2.535000
v 0.035000 0.035000 2.535000
v -0.035000 -0.035000 2.535000
v -0.035000 0.035000 2.535000
vn -0.0000 1.0000 -0.0000
vn 1.0000 -0.0000 -0.0000
vn -0.0000 -0.0000 1.0000
vt 1.000000 0.500000
vt 0.000000 1.000000
vt 0.000000 0.500000
vt 1.000000 0.000000
vt 0.000000 0.000000
vt 1.000000 1.000000
s 0
usemtl zaxis
f 46/17/8 43/18/8 45/19/8
f 42/20/8 45/19/8 41/21/8
f 46/17/9 47/19/9 45/19/9
f 45/19/9 50/17/9 46/17/9
f 52/20/10 53/18/10 51/21/10
f 56/20/10 57/18/10 55/21/10
f 46/17/8 44/22/8 43/18/8
f 42/20/8 46/17/8 45/19/8
f 46/17/9 48/17/9 47/19/9
f 45/19/9 49/19/9 50/17/9
f 52/20/10 54/22/10 53/18/10
f 56/20/10 58/22/10 57/18/10
